<svg xmlns="http://www.w3.org/2000/svg" width="512" height="512">
<defs>
  <symbol id="on-time" viewBox="0 0 512 512">
    <title>icon-on-time</title>
    <path d="M416.07,272a160,160,0,1,0-160,160A160,160,0,0,0,416.07,272Z" style="fill:none;stroke-miterlimit:10;stroke-width:32px"/><path d="M142.12,91.21A46.67,46.67,0,0,0,112,80l-2.79.08C83.66,81.62,64,104,64.07,131c0,13.21,4.66,19.37,10.88,27.23A4.55,4.55,0,0,0,78.19,160h.88a3.23,3.23,0,0,0,2.54-1.31L142.38,99a5.38,5.38,0,0,0,1.55-4A5.26,5.26,0,0,0,142.12,91.21Z" style="fill:none;stroke-miterlimit:10;stroke-width:32px"/><path d="M369.88,91.21A46.67,46.67,0,0,1,400,80l2.79.08C428.34,81.62,448,104,447.93,131c0,13.21-4.66,19.37-10.88,27.23a4.55,4.55,0,0,1-3.24,1.76h-.88a3.23,3.23,0,0,1-2.54-1.31L369.62,99a5.38,5.38,0,0,1-1.55-4A5.26,5.26,0,0,1,369.88,91.21Z" style="fill:none;stroke-miterlimit:10;stroke-width:32px"/><polyline points="256.07 160 256.07 272 176.07 272" style="fill:none;stroke-linecap:round;stroke-linejoin:round;stroke-width:32px"/><line x1="416.07" y1="432" x2="376.07" y2="392" style="fill:none;stroke-linecap:round;stroke-linejoin:round;stroke-width:32px"/><line x1="96.07" y1="432" x2="136.07" y2="392" style="fill:none;stroke-linecap:round;stroke-linejoin:round;stroke-width:32px"/>
  </symbol>

  <symbol id="perfect-design" viewBox="0 0 512 512">
    <title>icon-perfect-design</title>
    <path d="M35.42,188.21,243.17,457.67a16.17,16.17,0,0,0,25.66,0L476.58,188.21a16.52,16.52,0,0,0,.95-18.75L407.06,55.71A16.22,16.22,0,0,0,393.27,48H118.73a16.22,16.22,0,0,0-13.79,7.71L34.47,169.46A16.52,16.52,0,0,0,35.42,188.21Z" fill="none" stroke-linecap="round" stroke-linejoin="round" stroke-width="32"/><line x1="48" y1="176" x2="464" y2="176" fill="none" stroke-linecap="round" stroke-linejoin="round" stroke-width="32"/><polyline points="400 64 352 176 256 48" fill="none" stroke-linecap="round" stroke-linejoin="round" stroke-width="32"/><polyline points="112 64 160 176 256 48" fill="none" stroke-linecap="round" stroke-linejoin="round" stroke-width="32"/><line x1="256" y1="448" x2="160" y2="176" fill="none" stroke-linecap="round" stroke-linejoin="round" stroke-width="32"/><line x1="256" y1="448" x2="352" y2="176" fill="none" stroke-linecap="round" stroke-linejoin="round" stroke-width="32"/>
  </symbol>

  <symbol id="seo" viewBox="0 0 512 512">
    <title>icon-seo</title>
    <polyline points="352 144 464 144 464 256" style="fill:none;stroke-linecap:round;stroke-linejoin:round;stroke-width:32px"/><path d="M48,368,169.37,246.63a32,32,0,0,1,45.26,0l50.74,50.74a32,32,0,0,0,45.26,0L448,160" style="fill:none;stroke-linecap:round;stroke-linejoin:round;stroke-width:32px"/>
  </symbol>

  <symbol id="support" viewBox="0 0 512 512">
    <title>icon-support</title>
    <circle cx="256" cy="256" r="208" fill="none" stroke-linecap="round" stroke-linejoin="round" stroke-width="32"/><circle cx="256" cy="256" r="80" fill="none" stroke-linecap="round" stroke-linejoin="round" stroke-width="32"/><path fill="none" stroke-linecap="round" stroke-linejoin="round" stroke-width="32" d="M208 54l8 132M296 186l8-132M208 458l8-132M296 326l8 132M458 208l-132 8M326 296l132 8M54 208l132 8M186 296l-132 8"/>
  </symbol>

  <symbol id="unique" viewBox="0 0 512 512">
    <title>icon-unique</title>
    <circle cx="256" cy="160" r="128" style="fill:none;stroke-linecap:round;stroke-linejoin:round;stroke-width:32px"/><path d="M143.65,227.82,48,400l86.86-.42a16,16,0,0,1,13.82,7.8L192,480l88.33-194.32" style="fill:none;stroke-linecap:round;stroke-linejoin:round;stroke-width:32px"/><path d="M366.54,224,464,400l-86.86-.42a16,16,0,0,0-13.82,7.8L320,480,256,339.2" style="fill:none;stroke-linecap:round;stroke-linejoin:round;stroke-width:32px"/><circle cx="256" cy="160" r="64" style="fill:none;stroke-linecap:round;stroke-linejoin:round;stroke-width:32px"/>
  </symbol>

  <symbol id="secure" viewBox="0 0 512 512">
    <title>icon-secure</title>
    <polyline points="336 176 225.2 304 176 255.8" style="fill:none;stroke-linecap:round;stroke-linejoin:round;stroke-width:32px"/><path d="M463.1,112.37C373.68,96.33,336.71,84.45,256,48,175.29,84.45,138.32,96.33,48.9,112.37,32.7,369.13,240.58,457.79,256,464,271.42,457.79,479.3,369.13,463.1,112.37Z" style="fill:none;stroke-linecap:round;stroke-linejoin:round;stroke-width:32px"/>
  </symbol>

  <symbol id="chevron-right" viewBox="0 0 512 512">
    <title>icon-chevron-right</title>
    <polyline points="184 112 328 256 184 400" style="fill:none;stroke-linecap:round;stroke-linejoin:round;stroke-width:70px"/>
  </symbol>

  <symbol id="tech-html" viewBox="0 0 512 512">
    <title>tech-html</title>
    <path d="M108.4 0H131.4V22.8H152.6V0H175.6V69H152.6V46H131.6V69H108.4V0ZM206 23H185.7V0H249.4V23H229V69H206V23ZM259.5 0H283.6L298.4 24.3L313.2 0H337.3V69H314.3V34.8L298.2 59.6L282.1 34.8V69H259.5V0ZM348.7 0H371.7V46.2H404.3V69H348.7" fill="black"/>
<path d="M107.6 471L74.6 100.6H437.4L404.4 470.8L255.7 512" fill="#E44D26"/>
<path d="M256 480.5V131H404.3L376 447" fill="#F16529"/>
<path d="M142 176.3H256V221.7H191.8L196 268.2H256V313.5H154.4L142 176.3ZM156.4 336.3H202L205.2 372.6L256 386.2V433.6L162.8 407.6" fill="#EBEBEB"/>
<path d="M369.6 176.3H255.8V221.7H365.4L369.6 176.3ZM361.3 268.2H255.8V313.6H311.8L306.5 372.6L255.8 386.2V433.4L348.8 407.6" fill="white"/>
  </symbol>
  
  <symbol id="tech-sass" viewBox="0 0 684 512">
    <title>tech-sass</title>
    <g clip-path="url(#clip0_188_2)">
<path d="M587.815 294.282C563.998 294.406 543.299 300.142 525.966 308.622C519.606 296.027 513.247 284.805 512.125 276.575C510.878 266.973 509.381 261.113 510.878 249.641C512.374 238.169 519.108 221.833 518.983 220.586C518.858 219.339 517.487 213.479 503.77 213.354C490.054 213.229 478.207 215.973 476.836 219.589C475.464 223.205 472.846 231.435 471.1 239.914C468.731 252.384 443.667 296.9 429.327 320.218C424.713 311.115 420.723 303.135 419.85 296.775C418.603 287.174 417.107 281.313 418.603 269.841C420.099 258.369 426.833 242.034 426.708 240.787C426.583 239.54 425.212 233.679 411.495 233.555C397.779 233.43 385.933 236.173 384.561 239.79C383.189 243.406 381.693 251.885 378.825 260.115C375.957 268.345 342.663 342.663 333.935 361.867C329.446 371.717 325.58 379.573 322.837 384.935C322.837 384.935 322.712 385.309 322.338 385.933C319.969 390.546 318.597 393.04 318.597 393.04C318.597 393.04 318.597 393.04 318.597 393.165C316.727 396.532 314.732 399.649 313.734 399.649C312.986 399.649 311.614 390.671 313.983 378.451C318.971 352.639 330.817 312.487 330.693 311.115C330.693 310.367 332.937 303.384 322.961 299.768C313.235 296.152 309.744 302.137 308.871 302.137C307.998 302.137 307.375 304.257 307.375 304.257C307.375 304.257 318.223 259.117 286.675 259.117C266.973 259.117 239.79 280.69 226.322 300.142C217.843 304.756 199.762 314.607 180.434 325.206C173.077 329.321 165.471 333.436 158.363 337.301C157.865 336.803 157.366 336.179 156.867 335.68C118.71 294.905 48.1325 266.1 51.1252 211.359C52.2474 191.408 59.1057 139.036 186.669 75.4408C291.663 23.6921 375.209 38.0321 389.674 69.8295C410.373 115.219 344.908 199.513 236.423 211.733C195.024 216.347 173.327 200.386 167.84 194.4C162.104 188.166 161.231 187.792 159.112 189.038C155.62 190.909 157.865 196.52 159.112 199.762C162.354 208.242 175.696 223.205 198.266 230.562C218.217 237.046 266.724 240.662 325.455 217.968C391.17 192.53 442.545 121.828 427.456 62.5972C412.368 2.4939 312.612 -17.3327 218.217 16.2104C162.104 36.1617 101.253 67.585 57.4846 108.485C5.48658 157.116 -2.74332 199.388 0.623457 217.095C12.7189 279.942 99.3823 320.842 134.048 351.143C132.302 352.14 130.681 353.013 129.309 353.761C111.977 362.365 45.8879 396.906 29.4281 433.442C10.7238 474.841 32.4208 504.518 46.7608 508.508C91.2771 520.853 137.04 498.658 161.605 461.997C186.17 425.337 183.178 377.703 171.83 355.881C171.706 355.632 171.581 355.382 171.332 355.133C175.821 352.514 180.434 349.771 184.923 347.152C193.777 341.915 202.506 337.052 209.987 333.062C205.748 344.659 202.63 358.5 201.134 378.451C199.263 401.894 208.865 432.319 221.459 444.29C227.071 449.527 233.679 449.652 237.919 449.652C252.633 449.652 259.242 437.432 266.599 422.967C275.577 405.261 283.682 384.686 283.682 384.686C283.682 384.686 273.582 440.3 301.015 440.3C310.991 440.3 321.091 427.332 325.58 420.723C325.58 420.848 325.58 420.848 325.58 420.848C325.58 420.848 325.829 420.473 326.328 419.601C327.326 417.98 327.949 416.982 327.949 416.982C327.949 416.982 327.949 416.857 327.949 416.733C331.94 409.75 340.918 393.913 354.26 367.602C371.468 333.685 388.053 291.289 388.053 291.289C388.053 291.289 389.549 301.639 394.661 318.847C397.654 328.947 403.889 340.045 408.877 350.769C404.886 356.38 402.393 359.497 402.393 359.497C402.393 359.497 402.393 359.497 402.517 359.622C399.275 363.862 395.784 368.475 391.918 372.964C378.326 389.175 362.116 407.754 359.871 413.116C357.253 419.476 357.876 424.09 362.864 427.83C366.48 430.574 372.964 430.948 379.573 430.574C391.793 429.701 400.397 426.708 404.637 424.838C411.246 422.469 418.977 418.852 426.209 413.49C439.552 403.64 447.657 389.549 446.909 370.969C446.535 360.744 443.168 350.519 439.053 340.918C440.3 339.172 441.422 337.426 442.669 335.68C463.743 304.881 480.078 271.088 480.078 271.088C480.078 271.088 481.574 281.438 486.687 298.646C489.181 307.375 494.293 316.851 498.782 326.079C478.956 342.165 466.735 360.869 462.371 373.089C454.515 395.784 460.625 406.009 472.222 408.378C477.459 409.5 484.941 407.006 490.428 404.637C497.411 402.393 505.64 398.527 513.496 392.791C526.839 382.94 539.682 369.224 538.934 350.644C538.56 342.165 536.316 333.81 533.198 325.705C550.032 318.722 571.729 314.856 599.412 318.098C658.767 325.081 670.488 362.116 668.244 377.703C665.999 393.29 653.529 401.769 649.414 404.388C645.3 407.006 643.928 407.879 644.302 409.75C644.801 412.493 646.796 412.368 650.287 411.869C655.151 410.997 681.461 399.275 682.584 370.595C684.454 333.935 649.539 293.907 587.815 294.282ZM129.933 448.655C110.231 470.102 82.7978 478.207 70.9518 471.349C58.2328 463.992 63.2206 432.319 87.4116 409.625C102.126 395.784 121.079 382.94 133.674 375.084C136.542 373.338 140.781 370.845 145.894 367.727C146.767 367.228 147.265 366.979 147.265 366.979C148.263 366.356 149.261 365.732 150.258 365.109C159.112 397.529 150.632 426.085 129.933 448.655ZM273.333 351.143C266.474 367.852 252.134 410.622 243.406 408.253C235.924 406.258 231.31 373.837 241.909 341.791C247.271 325.705 258.619 306.502 265.227 299.02C275.951 287.049 287.797 283.059 290.665 287.922C294.282 294.282 277.572 340.668 273.333 351.143ZM391.669 407.754C388.801 409.251 386.057 410.248 384.81 409.5C383.938 409.001 386.057 407.006 386.057 407.006C386.057 407.006 400.896 391.045 406.757 383.813C410.124 379.573 414.114 374.585 418.354 368.974C418.354 369.473 418.354 370.096 418.354 370.595C418.354 389.674 399.899 402.517 391.669 407.754ZM482.946 386.93C480.826 385.434 481.2 380.446 488.308 364.859C491.051 358.749 497.535 348.524 508.633 338.673C509.88 342.663 510.753 346.529 510.628 350.145C510.504 374.211 493.296 383.189 482.946 386.93Z" fill="#CD6799"/>
</g>
<defs>
<clipPath id="clip0_188_2">
<rect width="683.082" height="512" fill="white"/>
</clipPath>
</defs>
  </symbol>

  <symbol id="tech-ts" viewBox="0 0 512 512">
    <title>tech-ts</title>
    <rect width="512" height="512" rx="50" fill="#3178c6"/>
 <path d="m317 407v50c8.1 4.2 18 7.3 29 9.4s23 3.1 35 3.1c12 0 23-1.1 34-3.4 11-2.3 20-6.1 28-11 8.1-5.3 15-12 19-21s7.1-19 7.1-32c0-9.1-1.4-17-4.1-24s-6.6-13-12-18c-5.1-5.3-11-10-18-14s-15-8.2-24-12c-6.6-2.7-12-5.3-18-7.9-5.2-2.6-9.7-5.2-13-7.8-3.7-2.7-6.5-5.5-8.5-8.4-2-3-3-6.3-3-10 0-3.4 0.89-6.5 2.7-9.3s4.3-5.1 7.5-7.1c3.2-2 7.2-3.5 12-4.6 4.7-1.1 9.9-1.6 16-1.6 4.2 0 8.6 0.31 13 0.94 4.6 0.63 9.3 1.6 14 2.9 4.7 1.3 9.3 2.9 14 4.9 4.4 2 8.5 4.3 12 6.9v-47c-7.6-2.9-16-5.1-25-6.5s-19-2.1-31-2.1c-12 0-23 1.3-34 3.8s-20 6.5-28 12c-8.1 5.4-14 12-19 21-4.7 8.4-7 18-7 30 0 15 4.3 28 13 38 8.6 11 22 19 39 27 6.9 2.8 13 5.6 19 8.3s11 5.5 15 8.4c4.3 2.9 7.7 6.1 10 9.5 2.5 3.4 3.8 7.4 3.8 12 0 3.2-0.78 6.2-2.3 9s-3.9 5.2-7.1 7.2-7.1 3.6-12 4.8c-4.7 1.1-10 1.7-17 1.7-11 0-22-1.9-32-5.7-11-3.8-21-9.5-30-17zm-84-123h64v-41h-179v41h64v183h51z" clip-rule="evenodd" fill="#fff" fill-rule="evenodd" style="fill:#fff"/>
  </symbol>

  <symbol id="tech-node" viewBox="0 0 512 512">
    <title>tech-node</title>
    <path d="M256.089 512C249.233 512 242.423 510.201 236.412 506.74L173.778 469.659C164.423 464.427 168.988 462.577 172.074 461.511C184.547 457.143 187.078 456.157 200.392 448.596C201.791 447.798 203.623 448.08 205.055 448.925L253.173 477.478C254.91 478.417 257.376 478.417 258.987 477.478L446.601 369.183C448.339 368.197 449.466 366.177 449.466 364.111V147.614C449.466 145.454 448.339 143.529 446.564 142.449L259.024 34.2473C257.287 33.2141 254.986 33.2141 253.248 34.2473L65.7461 142.449C63.9287 143.482 62.7734 145.501 62.7734 147.567V364.064C62.7734 366.13 63.9005 368.103 65.685 369.089L117.062 398.769C144.958 412.717 162.005 396.28 162.005 379.749V166.071C162.005 163.018 164.4 160.67 167.452 160.67H191.215C194.174 160.67 196.616 163.018 196.616 166.071V379.843C196.616 417.037 176.328 438.405 141.06 438.405C130.211 438.405 121.664 438.405 97.8073 426.665L48.5908 398.299C36.4275 391.255 28.9135 378.106 28.9135 364.064V147.567C28.9135 133.479 36.4275 120.329 48.5908 113.379L236.393 5.03671C248.275 -1.6789 264.054 -1.6789 275.842 5.03671L463.409 113.426C475.526 120.423 483.086 133.526 483.086 147.614V364.111C483.086 378.153 475.526 391.255 463.409 398.299L275.842 506.642C269.83 510.117 263.021 511.901 256.07 511.901" fill="#689F63"/>
<path d="M314.038 362.82C231.948 362.82 214.736 325.138 214.736 293.532C214.736 290.527 217.159 288.131 220.169 288.131H244.402C247.079 288.131 249.333 290.08 249.756 292.724C253.419 317.417 264.314 329.872 313.953 329.872C353.495 329.872 370.308 320.939 370.308 299.971C370.308 287.901 365.518 278.932 304.091 272.92C252.714 267.848 220.968 256.531 220.968 215.439C220.968 177.587 252.902 155.045 306.392 155.045C366.457 155.045 396.231 175.896 399.988 220.698C400.129 222.248 399.566 223.751 398.532 224.878C397.499 225.958 396.043 226.616 394.541 226.616H370.167C367.631 226.616 365.424 224.831 364.907 222.389C359.037 196.419 344.854 188.106 306.298 188.106C263.14 188.106 258.115 203.134 258.115 214.405C258.115 228.071 264.032 232.063 322.266 239.765C379.935 247.42 407.314 258.221 407.314 298.75C407.314 339.607 373.22 363.041 313.765 363.041L314.038 362.82Z" fill="#689F63"/>
  </symbol>

  <symbol id="tech-mongo" viewBox="0 0 512 512">
    <title>tech-mongo</title>
    <path d="M363.346 205.376C337.217 90.1077 282.757 59.4219 268.865 37.7301C263.136 28.1744 258.061 18.2416 253.675 8C252.941 18.24 251.593 24.6912 242.889 32.4565C225.413 48.0384 151.19 108.523 144.944 239.492C139.124 361.604 234.714 436.902 247.344 444.685C257.055 449.463 268.882 444.787 274.65 440.401C320.73 408.776 383.689 324.467 363.397 205.376" fill="#10AA50"/>
<path d="M257.635 379.661C255.229 409.886 253.505 427.447 247.395 444.719C247.395 444.719 251.406 473.493 254.222 503.974H264.189C266.566 482.51 270.196 461.203 275.06 440.162C262.158 433.813 258.13 406.182 257.635 379.661Z" fill="#B8C4C2"/>
<path d="M275.043 440.179C262.005 434.155 258.233 405.944 257.653 379.661C260.877 336.306 261.817 292.811 260.469 249.357C259.786 226.556 260.793 38.1739 254.854 10.5942C258.916 19.9352 263.597 28.9949 268.865 37.7131C282.758 59.4219 337.234 90.1078 363.346 205.376C383.69 324.262 321.072 408.35 275.043 440.179Z" fill="#12924F"/>
  </symbol>

  <symbol id="tech-react" viewBox="0 0 512 512">
    <title>tech-react</title>
<g clip-path="url(#clip0)">
<path d="M506.476 255.107C506.476 222.102 465.144 190.823 401.774 171.427C416.398 106.838 409.899 55.4522 381.26 39.0005C374.659 35.1414 366.941 33.3135 358.512 33.3135V55.9599C363.184 55.9599 366.941 56.8739 370.089 58.6003C383.901 66.5215 389.892 96.683 385.221 135.476C384.104 145.023 382.276 155.076 380.042 165.333C360.137 160.459 338.405 156.701 315.555 154.264C301.845 135.476 287.628 118.415 273.309 103.487C306.415 72.7163 337.491 55.8584 358.614 55.8584V33.2119C330.687 33.2119 294.127 53.1164 257.162 87.6447C220.196 53.3196 183.637 33.6181 155.71 33.6181V56.2646C176.731 56.2646 207.908 73.021 241.015 103.589C226.797 118.517 212.58 135.476 199.073 154.264C176.122 156.701 154.389 160.459 134.485 165.435C132.149 155.279 130.423 145.429 129.204 135.984C124.431 97.1907 130.321 67.0293 144.031 59.0066C147.078 57.1786 151.038 56.3662 155.71 56.3662V33.7197C147.179 33.7197 139.461 35.5476 132.758 39.4067C104.222 55.8584 97.824 107.143 112.549 171.528C49.3829 191.026 8.25366 222.203 8.25366 255.107C8.25366 288.112 49.586 319.39 112.956 338.787C98.3318 403.375 104.831 454.761 133.469 471.213C140.07 475.072 147.788 476.9 156.319 476.9C184.246 476.9 220.806 456.996 257.771 422.467C294.737 456.792 331.296 476.494 359.223 476.494C367.754 476.494 375.472 474.666 382.174 470.807C410.711 454.355 417.109 403.07 402.384 338.685C465.347 319.289 506.476 288.01 506.476 255.107ZM374.253 187.37C370.496 200.471 365.824 213.977 360.543 227.484C356.38 219.36 352.013 211.236 347.24 203.111C342.568 194.987 337.592 187.066 332.616 179.348C347.037 181.48 360.95 184.121 374.253 187.37ZM327.742 295.525C319.82 309.235 311.696 322.234 303.267 334.319C288.136 335.639 272.801 336.35 257.365 336.35C242.03 336.35 226.696 335.639 211.666 334.42C203.237 322.335 195.011 309.438 187.09 295.83C179.372 282.526 172.364 269.02 165.967 255.411C172.263 241.803 179.372 228.195 186.988 214.891C194.909 201.182 203.034 188.183 211.463 176.098C226.594 174.778 241.929 174.067 257.365 174.067C272.7 174.067 288.034 174.778 303.064 175.996C311.493 188.081 319.719 200.979 327.64 214.587C335.358 227.89 342.365 241.397 348.763 255.005C342.365 268.613 335.358 282.222 327.742 295.525ZM360.543 282.323C366.027 295.931 370.699 309.54 374.558 322.742C361.254 325.991 347.24 328.733 332.718 330.866C337.694 323.046 342.67 315.023 347.341 306.798C352.013 298.673 356.38 290.447 360.543 282.323ZM257.568 390.681C248.124 380.932 238.679 370.066 229.336 358.184C238.476 358.59 247.819 358.895 257.263 358.895C266.809 358.895 276.254 358.692 285.495 358.184C276.355 370.066 266.911 380.932 257.568 390.681ZM182.012 330.866C167.591 328.733 153.679 326.093 140.375 322.843C144.133 309.743 148.804 296.236 154.085 282.729C158.248 290.854 162.615 298.978 167.388 307.102C172.161 315.227 177.036 323.148 182.012 330.866ZM257.06 119.533C266.505 129.282 275.949 140.148 285.292 152.03C276.152 151.624 266.809 151.319 257.365 151.319C247.819 151.319 238.374 151.522 229.133 152.03C238.273 140.148 247.717 129.282 257.06 119.533ZM181.911 179.348C176.934 187.167 171.958 195.19 167.287 203.416C162.615 211.54 158.248 219.665 154.085 227.789C148.601 214.181 143.929 200.572 140.07 187.37C153.374 184.222 167.388 181.48 181.911 179.348ZM90.0044 306.493C54.0544 291.158 30.7986 271.051 30.7986 255.107C30.7986 239.163 54.0544 218.954 90.0044 203.721C98.738 199.963 108.284 196.612 118.135 193.464C123.923 213.368 131.54 234.085 140.984 255.31C131.641 276.433 124.126 297.048 118.439 316.851C108.386 313.703 98.8396 310.25 90.0044 306.493ZM144.64 451.613C130.829 443.692 124.837 413.531 129.509 374.737C130.626 365.191 132.454 355.137 134.688 344.88C154.593 349.755 176.325 353.512 199.175 355.95C212.884 374.737 227.102 391.798 241.421 406.726C208.314 437.497 177.239 454.355 156.116 454.355C151.546 454.254 147.687 453.34 144.64 451.613ZM385.526 374.229C390.299 413.023 384.409 443.184 370.699 451.207C367.652 453.035 363.692 453.847 359.02 453.847C337.998 453.847 306.822 437.091 273.715 406.523C287.933 391.595 302.15 374.635 315.657 355.848C338.608 353.411 360.34 349.653 380.245 344.677C382.581 354.934 384.409 364.785 385.526 374.229ZM424.624 306.493C415.89 310.25 406.344 313.602 396.493 316.75C390.705 296.845 383.088 276.128 373.644 254.904C382.987 233.78 390.502 213.165 396.189 193.362C406.243 196.51 415.789 199.963 424.725 203.721C460.675 219.055 483.931 239.163 483.931 255.107C483.83 271.051 460.574 291.26 424.624 306.493Z" fill="#61DAFB"/>
<path d="M257.264 301.517C282.895 301.517 303.674 280.738 303.674 255.107C303.674 229.475 282.895 208.697 257.264 208.697C231.632 208.697 210.854 229.475 210.854 255.107C210.854 280.738 231.632 301.517 257.264 301.517Z" fill="#61DAFB"/>
</g>
<defs>
<clipPath id="clip0">
<rect width="512" height="512" fill="white"/>
</clipPath>
</defs>
  </symbol>

  <symbol id="nav-open" viewBox="0 0 512 512">
    <title>nav-open</title>
    <line x1="88" y1="152" x2="424" y2="152" style="fill:none;stroke-linecap:round;stroke-miterlimit:10;stroke-width:48px"/><line x1="88" y1="256" x2="424" y2="256" style="fill:none;stroke-linecap:round;stroke-miterlimit:10;stroke-width:48px"/><line x1="88" y1="360" x2="424" y2="360" style="fill:none;stroke-linecap:round;stroke-miterlimit:10;stroke-width:48px"/>
  </symbol>

  <symbol id="nav-close" viewBox="0 0 512 512">
    <title>nav-close</title>
    <path d="M289.94,256l95-95A24,24,0,0,0,351,127l-95,95-95-95A24,24,0,0,0,127,161l95,95-95,95A24,24,0,1,0,161,385l95-95,95,95A24,24,0,0,0,385,351Z"/>
  </symbol>

  <symbol id="feedback-success" viewBox="0 0 512 512">
    <title>feedback-success</title>
    <path d="M448,256c0-106-86-192-192-192S64,150,64,256s86,192,192,192S448,362,448,256Z" style="fill:none;stroke:#17e677;stroke-miterlimit:10;stroke-width:32px"/><polyline points="352 176 217.6 336 160 272" style="fill:none;stroke:#17e677;stroke-linecap:round;stroke-linejoin:round;stroke-width:32px"/>
  </symbol>
</defs>
</svg>