<svg width="542" height="581" viewBox="0 0 542 581" fill="none" xmlns="http://www.w3.org/2000/svg">
<g filter="url(#filter0_d)">
<path d="M50 70C50 56.1929 61.1929 45 75 45H400C413.807 45 425 56.1929 425 70V527C425 529.761 422.761 532 420 532H55C52.2386 532 50 529.761 50 527V70Z" fill="white"/>
</g>
<g filter="url(#filter1_d)">
<rect x="79" y="249" width="413" height="95" rx="15" fill="white"/>
<path d="M50 70C50 56.1929 61.1929 45 75 45H400C413.807 45 425 56.1929 425 70V193C425 212.33 409.33 228 390 228H85C65.67 228 50 212.33 50 193V70Z" fill="#3469EB"/>
<path d="M102.422 102.344L92.5781 92.5L102.422 82.6562" stroke="white" stroke-width="1.8" stroke-linecap="round" stroke-linejoin="round"/>
<path d="M372.031 104.531C372.635 104.531 373.125 104.042 373.125 103.438C373.125 102.833 372.635 102.344 372.031 102.344C371.427 102.344 370.938 102.833 370.938 103.438C370.938 104.042 371.427 104.531 372.031 104.531Z" stroke="white" stroke-width="1.8" stroke-linecap="round" stroke-linejoin="round"/>
<path d="M387.344 104.531C387.948 104.531 388.438 104.042 388.438 103.438C388.438 102.833 387.948 102.344 387.344 102.344C386.74 102.344 386.25 102.833 386.25 103.438C386.25 104.042 386.74 104.531 387.344 104.531Z" stroke="white" stroke-width="1.8" stroke-linecap="round" stroke-linejoin="round"/>
<path d="M363.281 80.4688H367.656L370.938 99.0625H388.438" stroke="white" stroke-width="1.8" stroke-linecap="round" stroke-linejoin="round"/>
<path d="M370.938 94.6875H387.989C388.116 94.6876 388.238 94.6438 388.336 94.5637C388.434 94.4835 388.501 94.372 388.526 94.2479L390.494 84.4042C390.51 84.3248 390.508 84.2429 390.489 84.1644C390.469 84.0858 390.432 84.0126 390.381 83.95C390.33 83.8875 390.265 83.837 390.192 83.8025C390.119 83.7679 390.039 83.7499 389.958 83.75H368.75" stroke="white" stroke-width="1.8" stroke-linecap="round" stroke-linejoin="round"/>
<path d="M84.1733 151.129C86.006 151.129 87.3679 149.98 87.3679 148.433C87.3679 147.233 86.657 146.36 85.4659 146.162V146.088C86.4215 145.797 87.017 145.012 87.017 143.946C87.017 142.607 85.9599 141.416 84.2102 141.416C82.576 141.416 81.2188 142.423 81.1634 143.909H82.2713C82.3129 142.967 83.2085 142.413 84.1918 142.413C85.2351 142.413 85.9091 143.046 85.9091 144.001C85.9091 144.999 85.1289 145.645 84.0071 145.645H83.25V146.661H84.0071C85.4428 146.661 86.2415 147.39 86.2415 148.433C86.2415 149.435 85.369 150.114 84.1548 150.114C83.0607 150.114 82.1928 149.55 82.1236 148.636H80.9602C81.0295 150.123 82.3406 151.129 84.1733 151.129ZM89.4222 151H90.5671V146.771H95.6083V151H96.7532V141.545H95.6083V145.756H90.5671V141.545H89.4222V151ZM104.216 143.909H105.324C105.273 142.483 103.957 141.416 102.129 141.416C100.319 141.416 98.8975 142.469 98.8975 144.057C98.8975 145.331 99.8208 146.088 101.298 146.513L102.461 146.845C103.459 147.122 104.345 147.473 104.345 148.415C104.345 149.449 103.348 150.132 102.037 150.132C100.91 150.132 99.9132 149.634 99.8208 148.562H98.639C98.7498 150.114 100.006 151.166 102.037 151.166C104.216 151.166 105.453 149.966 105.453 148.433C105.453 146.661 103.773 146.088 102.794 145.83L101.834 145.571C101.132 145.386 100.006 145.017 100.006 144.001C100.006 143.097 100.836 142.432 102.092 142.432C103.237 142.432 104.105 142.977 104.216 143.909ZM110.253 151C113.134 151 114.759 149.209 114.759 146.254C114.759 143.318 113.134 141.545 110.382 141.545H107.335V151H110.253ZM108.48 149.984V142.561H110.308C112.524 142.561 113.651 143.964 113.651 146.254C113.651 148.562 112.524 149.984 110.179 149.984H108.48ZM116.679 151H117.824V146.771H121.923V145.756H117.824V142.561H122.348V141.545H116.679V151ZM124.309 151H125.454V146.771H130.495V151H131.64V141.545H130.495V145.756H125.454V141.545H124.309V151ZM134.061 151H135.262L139.472 142.616V141.545H133.415V142.561H138.29V142.635L134.061 151ZM144.073 151.129C146.16 151.129 147.36 149.361 147.36 146.273C147.36 143.207 146.141 141.416 144.073 141.416C142.005 141.416 140.786 143.207 140.786 146.273C140.786 149.361 141.987 151.129 144.073 151.129ZM144.073 150.114C142.698 150.114 141.894 148.733 141.894 146.273C141.894 143.817 142.707 142.413 144.073 142.413C145.44 142.413 146.252 143.817 146.252 146.273C146.252 148.733 145.449 150.114 144.073 150.114Z" fill="#D1D1D6"/>
<path d="M82.1974 187H99.1491V183.257H88.3793V183.088L92.6413 178.754C97.4467 174.141 98.7749 171.896 98.7749 169.107C98.7749 164.965 95.4062 161.935 90.4318 161.935C85.5298 161.935 82.0526 164.977 82.0526 169.674H86.3146C86.3146 167.151 87.9084 165.569 90.3714 165.569C92.7259 165.569 94.4766 167.006 94.4766 169.336C94.4766 171.401 93.2209 172.874 90.782 175.349L82.1974 183.764V187ZM102.337 182.412H114.133V187H118.407V182.412H121.57V178.729H118.407V162.273H112.829L102.337 178.85V182.412ZM114.181 178.729H106.925V178.536L113.988 167.344H114.181V178.729ZM134.103 162.273V187H138.401V169.976H138.631L145.464 186.928H148.676L155.51 170.012H155.739V187H160.038V162.273H154.556L147.215 180.19H146.925L139.585 162.273H134.103ZM170.059 187.374C172.969 187.374 174.707 186.01 175.504 184.452H175.649V187H179.851V174.588C179.851 169.686 175.854 168.213 172.317 168.213C168.417 168.213 165.423 169.952 164.457 173.332L168.538 173.912C168.972 172.644 170.204 171.558 172.341 171.558C174.369 171.558 175.48 172.596 175.48 174.419V174.491C175.48 175.747 174.164 175.808 170.892 176.158C167.294 176.544 163.853 177.619 163.853 181.796C163.853 185.442 166.521 187.374 170.059 187.374ZM171.194 184.163C169.371 184.163 168.067 183.33 168.067 181.724C168.067 180.045 169.528 179.345 171.484 179.067C172.631 178.911 174.925 178.621 175.492 178.162V180.347C175.492 182.412 173.826 184.163 171.194 184.163ZM186.298 193.955C189.703 193.955 191.671 192.204 192.722 189.246L200.171 168.479L195.499 168.455L191.212 182.46H191.019L186.745 168.455H182.109L188.834 187.386L188.46 188.388C187.651 190.501 186.371 190.646 184.463 190.091L183.449 193.496C184.04 193.737 185.103 193.955 186.298 193.955ZM207.174 183.619H203.31L203.226 184.972C203.021 188.244 202.163 191.576 201.813 193.037H204.759C205.339 191.516 206.679 187.99 207.017 184.947L207.174 183.619ZM219.692 187H236.643V183.257H225.873V183.088L230.135 178.754C234.941 174.141 236.269 171.896 236.269 169.107C236.269 164.965 232.9 161.935 227.926 161.935C223.024 161.935 219.547 164.977 219.547 169.674H223.809C223.809 167.151 225.403 165.569 227.866 165.569C230.22 165.569 231.971 167.006 231.971 169.336C231.971 171.401 230.715 172.874 228.276 175.349L219.692 183.764V187ZM249.949 187.471C255.913 187.483 259.475 182.774 259.475 174.661C259.475 166.595 255.889 161.935 249.949 161.935C244.008 161.935 240.434 166.583 240.422 174.661C240.422 182.762 243.984 187.471 249.949 187.471ZM249.949 183.692C246.87 183.692 244.938 180.601 244.95 174.661C244.962 168.768 246.882 165.665 249.949 165.665C253.028 165.665 254.947 168.768 254.959 174.661C254.959 180.601 253.04 183.692 249.949 183.692ZM263.487 187H280.438V183.257H269.668V183.088L273.93 178.754C278.736 174.141 280.064 171.896 280.064 169.107C280.064 164.965 276.695 161.935 271.721 161.935C266.819 161.935 263.342 164.977 263.342 169.674H267.604C267.604 167.151 269.197 165.569 271.661 165.569C274.015 165.569 275.766 167.006 275.766 169.336C275.766 171.401 274.51 172.874 272.071 175.349L263.487 183.764V187ZM294.661 162.273H290.399L284.254 166.221V170.326L290.037 166.631H290.182V187H294.661V162.273Z" fill="white"/>
<rect x="80" y="352" width="60" height="60" rx="5" fill="#F2F2F7"/>
<path d="M114.785 366.6C114.475 367.765 113.789 368.795 112.833 369.529C111.877 370.264 110.705 370.662 109.5 370.662C108.295 370.662 107.123 370.264 106.167 369.529C105.211 368.795 104.525 367.765 104.215 366.6M113.503 366.281C113.503 366.281 111.946 366.828 109.5 366.828C107.054 366.828 105.497 366.281 105.497 366.281C105.251 366.281 105.007 366.323 104.774 366.404L94.1875 370.109L95.3243 376.125L98.6657 376.502C99.0749 376.549 99.4517 376.747 99.7214 377.058C99.991 377.37 100.134 377.771 100.121 378.183L99.6562 394.719H119.344L118.879 378.183C118.866 377.771 119.009 377.37 119.279 377.058C119.548 376.747 119.925 376.549 120.334 376.502L123.676 376.125L124.812 370.109L114.226 366.404C113.993 366.323 113.749 366.281 113.503 366.281V366.281Z" stroke="black" stroke-width="1.8" stroke-linecap="round" stroke-linejoin="round"/>
<path d="M164.716 371.591H166.42C166.342 369.396 164.318 367.756 161.506 367.756C158.722 367.756 156.534 369.375 156.534 371.818C156.534 373.778 157.955 374.943 160.227 375.597L162.017 376.108C163.551 376.534 164.915 377.074 164.915 378.523C164.915 380.114 163.381 381.165 161.364 381.165C159.631 381.165 158.097 380.398 157.955 378.75H156.136C156.307 381.136 158.239 382.756 161.364 382.756C164.716 382.756 166.619 380.909 166.619 378.551C166.619 375.824 164.034 374.943 162.528 374.545L161.051 374.148C159.972 373.864 158.239 373.295 158.239 371.733C158.239 370.341 159.517 369.318 161.449 369.318C163.21 369.318 164.545 370.156 164.716 371.591ZM170.964 375.938C170.964 374.034 172.179 372.955 173.833 372.955C175.41 372.955 176.362 373.949 176.362 375.682V382.5H178.038V375.568C178.038 372.763 176.547 371.449 174.316 371.449C172.598 371.449 171.618 372.166 171.106 373.295H170.964V367.955H169.288V382.5H170.964V375.938ZM181.104 382.5H182.781V371.591H181.104V382.5ZM181.957 369.773C182.61 369.773 183.15 369.261 183.15 368.636C183.15 368.011 182.61 367.5 181.957 367.5C181.303 367.5 180.763 368.011 180.763 368.636C180.763 369.261 181.303 369.773 181.957 369.773ZM185.85 382.5H187.527V375.597C187.527 374.119 188.691 373.04 190.282 373.04C190.73 373.04 191.191 373.125 191.305 373.153V371.449C191.113 371.435 190.673 371.42 190.424 371.42C189.118 371.42 187.981 372.159 187.583 373.239H187.47V371.591H185.85V382.5ZM198.72 371.591H196.39V368.977H194.714V371.591H193.066V373.011H194.714V379.83C194.714 381.733 196.248 382.642 197.669 382.642C198.294 382.642 198.691 382.528 198.919 382.443L198.578 380.938C198.436 380.966 198.208 381.023 197.839 381.023C197.1 381.023 196.39 380.795 196.39 379.375V373.011H198.72V371.591Z" fill="black"/>
<path d="M162.719 394.5C162.719 391.969 161.234 390.391 159.188 390.391C157.141 390.391 155.656 391.969 155.656 394.5C155.656 397.031 157.141 398.609 159.188 398.609C159.711 398.609 160.195 398.508 160.629 398.312L161.328 399.25H162.391L161.348 397.863C162.199 397.164 162.719 396 162.719 394.5ZM158.875 396L160.063 397.555C159.789 397.652 159.496 397.703 159.188 397.703C157.734 397.703 156.594 396.578 156.594 394.5C156.594 392.422 157.734 391.297 159.188 391.297C160.641 391.297 161.781 392.422 161.781 394.5C161.781 395.707 161.398 396.59 160.789 397.121L159.938 396H158.875ZM166.832 392.5H165.551V391.062H164.629V392.5H163.723V393.281H164.629V397.031C164.629 398.078 165.473 398.578 166.254 398.578C166.598 398.578 166.816 398.516 166.941 398.469L166.754 397.641C166.676 397.656 166.551 397.687 166.348 397.687C165.941 397.687 165.551 397.562 165.551 396.781V393.281H166.832V392.5ZM168.813 400.75C169.645 400.75 170.23 400.309 170.578 399.375L173.133 392.516L172.125 392.5L170.469 397.281H170.406L168.75 392.5H167.75L169.969 398.531L169.797 399C169.461 399.914 169.047 400 168.375 399.828L168.141 400.641C168.234 400.688 168.5 400.75 168.813 400.75ZM175.024 398.563C175.411 398.563 175.728 398.246 175.728 397.859C175.728 397.473 175.411 397.156 175.024 397.156C174.638 397.156 174.321 397.473 174.321 397.859C174.321 398.246 174.638 398.563 175.024 398.563ZM175.024 394.109C175.411 394.109 175.728 393.793 175.728 393.406C175.728 393.02 175.411 392.703 175.024 392.703C174.638 392.703 174.321 393.02 174.321 393.406C174.321 393.793 174.638 394.109 175.024 394.109ZM183.272 390.5H182.304L180.304 391.828V392.812L182.257 391.516H182.304V398.5H183.272V390.5Z" fill="#8E8E93"/>
<path d="M340.562 390.045H341.842L341.848 388.663C344.438 388.476 345.923 387.051 345.929 385.029C345.923 382.886 344.154 381.908 342.295 381.467L341.896 381.364L341.92 377.917C342.886 378.086 343.508 378.666 343.605 379.535H345.76C345.724 377.615 344.214 376.215 341.932 375.998L341.938 374.591H340.659L340.653 375.998C338.389 376.227 336.759 377.615 336.765 379.614C336.765 381.388 338.026 382.409 340.061 382.934L340.604 383.073L340.58 386.725C339.499 386.556 338.721 385.94 338.642 384.848H336.439C336.523 387.112 338.081 388.458 340.568 388.663L340.562 390.045ZM341.86 386.725L341.884 383.411C342.983 383.731 343.683 384.153 343.689 385.011C343.683 385.904 342.965 386.544 341.86 386.725ZM340.616 381.038C339.783 380.773 339.023 380.332 339.035 379.475C339.041 378.696 339.626 378.092 340.64 377.917L340.616 381.038ZM352.242 388.669C354.886 388.669 356.812 387.154 356.806 385.065C356.812 383.52 355.846 382.409 354.113 382.161V382.065C355.454 381.775 356.353 380.779 356.347 379.39C356.353 377.507 354.747 375.967 352.278 375.967C349.875 375.967 348.016 377.398 347.968 379.469H350.123C350.159 378.43 351.125 377.784 352.266 377.784C353.419 377.784 354.186 378.485 354.18 379.523C354.186 380.604 353.292 381.322 352.013 381.322H350.92V383.049H352.013C353.576 383.049 354.506 383.833 354.5 384.95C354.506 386.043 353.558 386.792 352.236 386.792C350.992 386.792 350.032 386.146 349.978 385.137H347.708C347.769 387.226 349.634 388.669 352.242 388.669ZM363.176 388.669C365.79 388.669 367.613 386.894 367.613 384.437C367.613 382.059 365.959 380.344 363.714 380.344C362.711 380.344 361.824 380.743 361.365 381.286H361.293L361.649 378.008H366.968V376.136H359.796L359.15 382.511L361.172 382.843C361.589 382.385 362.373 382.077 363.116 382.083C364.474 382.089 365.452 383.091 365.446 384.491C365.452 385.874 364.498 386.858 363.176 386.858C362.059 386.858 361.16 386.152 361.081 385.137H358.908C358.969 387.19 360.762 388.669 363.176 388.669ZM370.591 388.633C371.304 388.633 371.913 388.041 371.919 387.305C371.913 386.58 371.304 385.989 370.591 385.989C369.855 385.989 369.257 386.58 369.263 387.305C369.257 388.041 369.855 388.633 370.591 388.633ZM378.3 388.669C380.914 388.669 382.737 386.894 382.737 384.437C382.737 382.059 381.083 380.344 378.838 380.344C377.835 380.344 376.948 380.743 376.489 381.286H376.417L376.773 378.008H382.092V376.136H374.92L374.274 382.511L376.296 382.843C376.713 382.385 377.497 382.077 378.24 382.083C379.598 382.089 380.576 383.091 380.57 384.491C380.576 385.874 379.622 386.858 378.3 386.858C377.184 386.858 376.284 386.152 376.206 385.137H374.032C374.093 387.19 375.886 388.669 378.3 388.669ZM389.33 388.735C392.312 388.741 394.093 386.387 394.093 382.33C394.093 378.298 392.3 375.967 389.33 375.967C386.36 375.967 384.573 378.292 384.567 382.33C384.567 386.381 386.348 388.735 389.33 388.735ZM389.33 386.846C387.79 386.846 386.824 385.3 386.831 382.33C386.837 379.384 387.796 377.833 389.33 377.833C390.869 377.833 391.829 379.384 391.835 382.33C391.835 385.3 390.875 386.846 389.33 386.846Z" fill="black"/>
<rect x="80" y="432" width="60" height="60" rx="5" fill="#F2F2F7"/>
<path d="M118.25 468.156H119.891C120.615 468.154 121.309 467.865 121.822 467.353C122.334 466.841 122.623 466.146 122.625 465.422V454.484C122.623 453.76 122.334 453.066 121.822 452.553C121.309 452.041 120.615 451.752 119.891 451.75H99.1094C98.3848 451.752 97.6906 452.041 97.1783 452.553C96.6659 453.066 96.3772 453.76 96.375 454.484V465.422C96.3772 466.146 96.6659 466.841 97.1783 467.353C97.6906 467.865 98.3848 468.154 99.1094 468.156H100.75" stroke="black" stroke-width="1.8" stroke-linejoin="round"/>
<path d="M116.587 459.406H102.413C101.494 459.406 100.75 460.151 100.75 461.069V471.962C100.75 472.881 101.494 473.625 102.413 473.625H116.587C117.506 473.625 118.25 472.881 118.25 471.962V461.069C118.25 460.151 117.506 459.406 116.587 459.406Z" stroke="black" stroke-width="1.8" stroke-linejoin="round"/>
<path d="M118.25 451.75V450.109C118.248 449.385 117.959 448.691 117.447 448.178C116.934 447.666 116.24 447.377 115.516 447.375H103.484C102.76 447.377 102.066 447.666 101.553 448.178C101.041 448.691 100.752 449.385 100.75 450.109V451.75" stroke="black" stroke-width="1.8" stroke-linejoin="round"/>
<path d="M118.797 457.219C119.703 457.219 120.438 456.484 120.438 455.578C120.438 454.672 119.703 453.938 118.797 453.938C117.891 453.938 117.156 454.672 117.156 455.578C117.156 456.484 117.891 457.219 118.797 457.219Z" fill="black"/>
<path d="M156.761 462.5H158.523V457.188H161.705C165.092 457.188 166.619 455.128 166.619 452.557C166.619 449.986 165.092 447.955 161.676 447.955H156.761V462.5ZM158.523 455.625V449.517H161.619C163.984 449.517 164.886 450.81 164.886 452.557C164.886 454.304 163.984 455.625 161.648 455.625H158.523ZM169.229 462.5H170.906V455.597C170.906 454.119 172.07 453.04 173.661 453.04C174.109 453.04 174.57 453.125 174.684 453.153V451.449C174.492 451.435 174.052 451.42 173.803 451.42C172.496 451.42 171.36 452.159 170.962 453.239H170.849V451.591H169.229V462.5ZM176.671 462.5H178.347V451.591H176.671V462.5ZM177.523 449.773C178.176 449.773 178.716 449.261 178.716 448.636C178.716 448.011 178.176 447.5 177.523 447.5C176.87 447.5 176.33 448.011 176.33 448.636C176.33 449.261 176.87 449.773 177.523 449.773ZM183.093 455.938C183.093 454.034 184.272 452.955 185.877 452.955C187.433 452.955 188.377 453.97 188.377 455.682V462.5H190.053V455.568C190.053 452.784 188.569 451.449 186.36 451.449C184.712 451.449 183.69 452.188 183.178 453.295H183.036V451.591H181.417V462.5H183.093V455.938ZM197.86 451.591H195.531V448.977H193.855V451.591H192.207V453.011H193.855V459.83C193.855 461.733 195.389 462.642 196.809 462.642C197.434 462.642 197.832 462.528 198.059 462.443L197.718 460.938C197.576 460.966 197.349 461.023 196.98 461.023C196.241 461.023 195.531 460.795 195.531 459.375V453.011H197.86V451.591ZM204.838 462.727C207.054 462.727 208.674 461.619 209.185 459.972L207.566 459.517C207.14 460.653 206.152 461.222 204.838 461.222C202.871 461.222 201.515 459.95 201.436 457.614H209.355V456.903C209.355 452.841 206.941 451.449 204.668 451.449C201.713 451.449 199.753 453.778 199.753 457.131C199.753 460.483 201.685 462.727 204.838 462.727ZM201.436 456.165C201.55 454.467 202.75 452.955 204.668 452.955C206.486 452.955 207.651 454.318 207.651 456.165H201.436ZM211.905 462.5H213.581V455.597C213.581 454.119 214.746 453.04 216.337 453.04C216.784 453.04 217.246 453.125 217.36 453.153V451.449C217.168 451.435 216.728 451.42 216.479 451.42C215.172 451.42 214.036 452.159 213.638 453.239H213.525V451.591H211.905V462.5Z" fill="black"/>
<path d="M162.719 474.5C162.719 471.969 161.234 470.391 159.188 470.391C157.141 470.391 155.656 471.969 155.656 474.5C155.656 477.031 157.141 478.609 159.188 478.609C159.711 478.609 160.195 478.508 160.629 478.312L161.328 479.25H162.391L161.348 477.863C162.199 477.164 162.719 476 162.719 474.5ZM158.875 476L160.063 477.555C159.789 477.652 159.496 477.703 159.188 477.703C157.734 477.703 156.594 476.578 156.594 474.5C156.594 472.422 157.734 471.297 159.188 471.297C160.641 471.297 161.781 472.422 161.781 474.5C161.781 475.707 161.398 476.59 160.789 477.121L159.938 476H158.875ZM166.832 472.5H165.551V471.062H164.629V472.5H163.723V473.281H164.629V477.031C164.629 478.078 165.473 478.578 166.254 478.578C166.598 478.578 166.816 478.516 166.941 478.469L166.754 477.641C166.676 477.656 166.551 477.687 166.348 477.687C165.941 477.687 165.551 477.562 165.551 476.781V473.281H166.832V472.5ZM168.813 480.75C169.645 480.75 170.23 480.309 170.578 479.375L173.133 472.516L172.125 472.5L170.469 477.281H170.406L168.75 472.5H167.75L169.969 478.531L169.797 479C169.461 479.914 169.047 480 168.375 479.828L168.141 480.641C168.234 480.688 168.5 480.75 168.813 480.75ZM175.024 478.563C175.411 478.563 175.728 478.246 175.728 477.859C175.728 477.473 175.411 477.156 175.024 477.156C174.638 477.156 174.321 477.473 174.321 477.859C174.321 478.246 174.638 478.563 175.024 478.563ZM175.024 474.109C175.411 474.109 175.728 473.793 175.728 473.406C175.728 473.02 175.411 472.703 175.024 472.703C174.638 472.703 174.321 473.02 174.321 473.406C174.321 473.793 174.638 474.109 175.024 474.109ZM183.272 470.5H182.304L180.304 471.828V472.812L182.257 471.516H182.304V478.5H183.272V470.5Z" fill="#8E8E93"/>
<path d="M328.476 470.045H329.756L329.762 468.663C332.352 468.476 333.837 467.051 333.843 465.029C333.837 462.886 332.068 461.908 330.209 461.467L329.81 461.364L329.834 457.917C330.8 458.086 331.422 458.666 331.519 459.535H333.674C333.638 457.615 332.128 456.215 329.846 455.998L329.852 454.591H328.573L328.567 455.998C326.303 456.227 324.673 457.615 324.679 459.614C324.679 461.388 325.941 462.409 327.975 462.934L328.518 463.073L328.494 466.725C327.414 466.556 326.635 465.94 326.556 464.848H324.353C324.437 467.112 325.995 468.458 328.482 468.663L328.476 470.045ZM329.774 466.725L329.798 463.411C330.897 463.731 331.597 464.153 331.603 465.011C331.597 465.904 330.879 466.544 329.774 466.725ZM328.53 461.038C327.697 460.773 326.937 460.332 326.949 459.475C326.955 458.696 327.54 458.092 328.555 457.917L328.53 461.038ZM335.495 466.206H341.394V468.5H343.531V466.206H345.112V464.365H343.531V456.136H340.742L335.495 464.425V466.206ZM341.418 464.365H337.79V464.268L341.321 458.672H341.418V464.365ZM346.818 466.206H352.716V468.5H354.853V466.206H356.435V464.365H354.853V456.136H352.064L346.818 464.425V466.206ZM352.74 464.365H349.112V464.268L352.643 458.672H352.74V464.365ZM362.758 468.669C365.433 468.669 367.346 467.196 367.352 465.186C367.346 463.64 366.205 462.348 364.769 462.107V462.022C366.018 461.745 366.888 460.622 366.894 459.282C366.888 457.38 365.137 455.967 362.758 455.967C360.362 455.967 358.611 457.374 358.617 459.282C358.611 460.622 359.468 461.745 360.742 462.022V462.107C359.281 462.348 358.152 463.64 358.158 465.186C358.152 467.196 360.06 468.669 362.758 468.669ZM362.758 466.942C361.358 466.942 360.452 466.17 360.464 465.029C360.452 463.846 361.424 463.006 362.758 463.006C364.074 463.006 365.04 463.852 365.052 465.029C365.04 466.17 364.141 466.942 362.758 466.942ZM362.758 461.31C361.611 461.31 360.79 460.567 360.802 459.493C360.79 458.43 361.587 457.718 362.758 457.718C363.911 457.718 364.702 458.43 364.714 459.493C364.702 460.574 363.887 461.31 362.758 461.31ZM370.342 468.633C371.055 468.633 371.664 468.041 371.67 467.305C371.664 466.58 371.055 465.989 370.342 465.989C369.606 465.989 369.008 466.58 369.014 467.305C369.008 468.041 369.606 468.633 370.342 468.633ZM377.991 468.735C380.973 468.741 382.754 466.387 382.754 462.33C382.754 458.298 380.961 455.967 377.991 455.967C375.021 455.967 373.234 458.292 373.228 462.33C373.228 466.381 375.009 468.735 377.991 468.735ZM377.991 466.846C376.452 466.846 375.486 465.3 375.492 462.33C375.498 459.384 376.458 457.833 377.991 457.833C379.53 457.833 380.49 459.384 380.496 462.33C380.496 465.3 379.536 466.846 377.991 466.846ZM389.33 468.735C392.312 468.741 394.093 466.387 394.093 462.33C394.093 458.298 392.3 455.967 389.33 455.967C386.36 455.967 384.573 458.292 384.567 462.33C384.567 466.381 386.348 468.735 389.33 468.735ZM389.33 466.846C387.79 466.846 386.824 465.3 386.831 462.33C386.837 459.384 387.796 457.833 389.33 457.833C390.869 457.833 391.829 459.384 391.835 462.33C391.835 465.3 390.875 466.846 389.33 466.846Z" fill="black"/>
<rect x="92" y="258" width="78.6667" height="78.6667" rx="6.55556" fill="#F2F2F7"/>
<path d="M125.659 294.546C126.448 299.8 125.002 302.672 120.917 303.276C116.377 303.948 114.506 300.906 113.717 295.653C112.655 288.583 115.151 284.186 118.71 283.903C121.949 283.645 124.868 289.293 125.659 294.546ZM127.778 309.127C128.059 312.11 126.447 314.894 124.014 315.37C121.558 315.851 118.752 313.903 118.18 310.962C117.608 308.02 119.771 307.864 122.421 307.358C125.072 306.851 127.44 305.529 127.778 309.127ZM135.697 285.941C134.907 291.195 136.354 294.067 140.438 294.671C144.979 295.342 146.848 292.301 147.638 287.048C148.701 279.977 146.204 275.556 142.646 275.297C139.383 275.061 136.487 280.687 135.697 285.941ZM133.577 300.523C133.297 303.505 134.909 306.289 137.342 306.766C139.797 307.247 142.604 305.299 143.175 302.358C143.747 299.416 141.584 299.26 138.934 298.753C136.284 298.245 133.916 296.924 133.577 300.523V300.523Z" stroke="black" stroke-width="2.36" stroke-miterlimit="10"/>
<path d="M203.072 284.53H205.307C205.204 281.653 202.55 279.502 198.863 279.502C195.213 279.502 192.345 281.625 192.345 284.828C192.345 287.398 194.207 288.926 197.187 289.782L199.533 290.453C201.545 291.011 203.333 291.719 203.333 293.619C203.333 295.705 201.321 297.083 198.677 297.083C196.405 297.083 194.393 296.077 194.207 293.917H191.823C192.047 297.045 194.58 299.169 198.677 299.169C203.072 299.169 205.568 296.747 205.568 293.656C205.568 290.08 202.178 288.926 200.204 288.404L198.267 287.883C196.852 287.51 194.58 286.765 194.58 284.717C194.58 282.891 196.256 281.55 198.789 281.55C201.098 281.55 202.848 282.649 203.072 284.53ZM211.264 290.229C211.264 287.734 212.856 286.318 215.026 286.318C217.093 286.318 218.341 287.622 218.341 289.894V298.833H220.539V289.745C220.539 286.067 218.583 284.344 215.659 284.344C213.406 284.344 212.121 285.285 211.45 286.765H211.264V279.763H209.066V298.833H211.264V290.229ZM230.37 299.131C234.243 299.131 236.851 296.189 236.851 291.756C236.851 287.287 234.243 284.344 230.37 284.344C226.496 284.344 223.889 287.287 223.889 291.756C223.889 296.189 226.496 299.131 230.37 299.131ZM230.37 297.157C227.427 297.157 226.086 294.624 226.086 291.756C226.086 288.888 227.427 286.318 230.37 286.318C233.312 286.318 234.653 288.888 234.653 291.756C234.653 294.624 233.312 297.157 230.37 297.157ZM246.202 299.131C249.108 299.131 251.231 297.679 251.901 295.518L249.778 294.922C249.219 296.412 247.925 297.157 246.202 297.157C243.623 297.157 241.844 295.49 241.742 292.427H252.125V291.496C252.125 286.169 248.959 284.344 245.979 284.344C242.105 284.344 239.535 287.398 239.535 291.794C239.535 296.189 242.068 299.131 246.202 299.131ZM241.742 290.527C241.891 288.302 243.465 286.318 245.979 286.318C248.363 286.318 249.89 288.106 249.89 290.527H241.742ZM265.599 287.734C264.91 285.704 263.364 284.344 260.533 284.344C257.516 284.344 255.281 286.057 255.281 288.479C255.281 290.453 256.455 291.775 259.081 292.39L261.464 292.948C262.908 293.283 263.587 293.973 263.587 294.96C263.587 296.189 262.284 297.194 260.235 297.194C258.438 297.194 257.311 296.422 256.92 294.885L254.834 295.407C255.346 297.837 257.349 299.131 260.272 299.131C263.597 299.131 265.86 297.315 265.86 294.848C265.86 292.855 264.612 291.598 262.06 290.974L259.937 290.453C258.242 290.034 257.479 289.466 257.479 288.367C257.479 287.138 258.783 286.244 260.533 286.244C262.451 286.244 263.243 287.305 263.625 288.292L265.599 287.734Z" fill="black"/>
<path d="M200.453 313.589C200.453 310.27 198.507 308.201 195.824 308.201C193.14 308.201 191.194 310.27 191.194 313.589C191.194 316.908 193.14 318.977 195.824 318.977C196.51 318.977 197.145 318.844 197.713 318.587L198.63 319.817H200.023L198.656 317.999C199.772 317.082 200.453 315.556 200.453 313.589ZM195.414 315.556L196.971 317.594C196.612 317.722 196.228 317.789 195.824 317.789C193.918 317.789 192.423 316.314 192.423 313.589C192.423 310.864 193.918 309.389 195.824 309.389C197.729 309.389 199.224 310.864 199.224 313.589C199.224 315.171 198.722 316.329 197.923 317.025L196.807 315.556H195.414ZM205.846 310.967H204.167V309.082H202.958V310.967H201.77V311.991H202.958V316.908C202.958 318.28 204.064 318.936 205.088 318.936C205.539 318.936 205.826 318.854 205.99 318.792L205.744 317.707C205.642 317.727 205.478 317.768 205.211 317.768C204.679 317.768 204.167 317.604 204.167 316.58V311.991H205.846V310.967ZM208.443 321.783C209.534 321.783 210.302 321.205 210.758 319.981L214.107 310.987L212.786 310.967L210.615 317.235H210.533L208.361 310.967H207.05L209.959 318.874L209.734 319.489C209.293 320.687 208.75 320.8 207.869 320.575L207.562 321.64C207.685 321.701 208.033 321.783 208.443 321.783ZM216.588 318.915C217.095 318.915 217.509 318.5 217.509 317.993C217.509 317.486 217.095 317.072 216.588 317.072C216.081 317.072 215.666 317.486 215.666 317.993C215.666 318.5 216.081 318.915 216.588 318.915ZM216.588 313.077C217.095 313.077 217.509 312.662 217.509 312.155C217.509 311.648 217.095 311.233 216.588 311.233C216.081 311.233 215.666 311.648 215.666 312.155C215.666 312.662 216.081 313.077 216.588 313.077ZM227.258 318.977C229.292 318.977 230.802 317.701 230.802 315.986C230.802 314.654 230.014 313.686 228.692 313.466V313.384C229.752 313.061 230.413 312.191 230.413 311.008C230.413 309.522 229.24 308.201 227.299 308.201C225.486 308.201 223.98 309.318 223.919 310.967H225.148C225.194 309.922 226.188 309.307 227.279 309.307C228.436 309.307 229.184 310.009 229.184 311.069C229.184 312.175 228.318 312.892 227.074 312.892H226.234V314.019H227.074C228.667 314.019 229.553 314.828 229.553 315.986C229.553 317.097 228.585 317.85 227.238 317.85C226.024 317.85 225.061 317.225 224.984 316.211H223.694C223.771 317.86 225.225 318.977 227.258 318.977Z" fill="#8E8E93"/>
<path d="M395.805 307.86H397.483L397.491 306.047C400.887 305.802 402.834 303.934 402.842 301.282C402.834 298.472 400.515 297.19 398.077 296.612L397.554 296.478L397.586 291.958C398.853 292.18 399.668 292.94 399.794 294.079H402.62C402.573 291.562 400.594 289.726 397.602 289.441L397.61 287.597H395.932L395.924 289.441C392.956 289.742 390.819 291.562 390.827 294.182C390.827 296.509 392.481 297.847 395.148 298.536L395.861 298.718L395.829 303.506C394.412 303.285 393.391 302.477 393.288 301.045H390.399C390.51 304.013 392.552 305.778 395.813 306.047L395.805 307.86ZM397.507 303.506L397.539 299.161C398.979 299.58 399.897 300.134 399.905 301.258C399.897 302.43 398.955 303.269 397.507 303.506ZM395.876 296.05C394.784 295.702 393.787 295.124 393.803 294C393.811 292.979 394.578 292.188 395.908 291.958L395.876 296.05ZM411.119 306.055C414.586 306.055 417.111 304.068 417.103 301.33C417.111 299.303 415.844 297.847 413.573 297.522V297.396C415.33 297.016 416.509 295.71 416.501 293.889C416.509 291.42 414.404 289.402 411.166 289.402C408.016 289.402 405.578 291.277 405.515 293.992H408.341C408.388 292.631 409.655 291.784 411.151 291.784C412.662 291.784 413.668 292.702 413.66 294.064C413.668 295.48 412.496 296.422 410.818 296.422H409.386V298.686H410.818C412.868 298.686 414.087 299.715 414.079 301.179C414.087 302.612 412.844 303.593 411.111 303.593C409.481 303.593 408.222 302.746 408.151 301.425H405.175C405.254 304.163 407.7 306.055 411.119 306.055ZM425.756 306.055C429.254 306.079 431.605 303.673 431.597 300.467C431.605 297.404 429.421 295.188 426.579 295.188C424.838 295.188 423.302 296.034 422.527 297.428H422.416C422.424 294.016 423.674 291.942 425.922 291.942C427.315 291.942 428.257 292.75 428.558 293.992H431.447C431.099 291.372 428.985 289.402 425.922 289.402C422.028 289.402 419.566 292.647 419.566 298.187C419.558 304.132 422.645 306.039 425.756 306.055ZM425.74 303.68C424.007 303.68 422.74 302.248 422.732 300.554C422.748 298.852 424.062 297.428 425.78 297.428C427.497 297.428 428.756 298.789 428.748 300.53C428.756 302.303 427.458 303.68 425.74 303.68ZM440.264 306.142C444.174 306.15 446.509 303.063 446.509 297.744C446.509 292.457 444.158 289.402 440.264 289.402C436.37 289.402 434.027 292.449 434.019 297.744C434.019 303.055 436.354 306.142 440.264 306.142ZM440.264 303.665C438.246 303.665 436.98 301.638 436.987 297.744C436.995 293.882 438.254 291.847 440.264 291.847C442.283 291.847 443.541 293.882 443.549 297.744C443.549 301.638 442.291 303.665 440.264 303.665ZM450.305 306.007C451.239 306.007 452.038 305.232 452.046 304.266C452.038 303.316 451.239 302.541 450.305 302.541C449.339 302.541 448.555 303.316 448.563 304.266C448.555 305.232 449.339 306.007 450.305 306.007ZM455.065 305.833H458.113L464.999 292.132V289.623H453.957V292.077H461.96V292.188L455.065 305.833ZM472.971 306.055C476.399 306.055 478.789 303.728 478.789 300.506C478.789 297.388 476.62 295.14 473.676 295.14C472.362 295.14 471.198 295.662 470.597 296.375H470.502L470.969 292.077H477.942V289.623H468.539L467.692 297.982L470.344 298.417C470.89 297.815 471.919 297.412 472.892 297.42C474.673 297.428 475.955 298.741 475.947 300.578C475.955 302.39 474.705 303.68 472.971 303.68C471.507 303.68 470.328 302.754 470.225 301.425H467.375C467.455 304.116 469.805 306.055 472.971 306.055Z" fill="black"/>
</g>
<defs>
<filter id="filter0_d" x="5" y="4" width="465" height="577" filterUnits="userSpaceOnUse" color-interpolation-filters="sRGB">
<feFlood flood-opacity="0" result="BackgroundImageFix"/>
<feColorMatrix in="SourceAlpha" type="matrix" values="0 0 0 0 0 0 0 0 0 0 0 0 0 0 0 0 0 0 127 0" result="hardAlpha"/>
<feOffset dy="4"/>
<feGaussianBlur stdDeviation="22.5"/>
<feComposite in2="hardAlpha" operator="out"/>
<feColorMatrix type="matrix" values="0 0 0 0 0.675 0 0 0 0 0.675 0 0 0 0 0.675 0 0 0 0.5 0"/>
<feBlend mode="normal" in2="BackgroundImageFix" result="effect1_dropShadow"/>
<feBlend mode="normal" in="SourceGraphic" in2="effect1_dropShadow" result="shape"/>
</filter>
<filter id="filter1_d" x="0" y="0.244444" width="542" height="547" filterUnits="userSpaceOnUse" color-interpolation-filters="sRGB">
<feFlood flood-opacity="0" result="BackgroundImageFix"/>
<feColorMatrix in="SourceAlpha" type="matrix" values="0 0 0 0 0 0 0 0 0 0 0 0 0 0 0 0 0 0 127 0" result="hardAlpha"/>
<feOffset dy="5.24444"/>
<feGaussianBlur stdDeviation="25"/>
<feComposite in2="hardAlpha" operator="out"/>
<feColorMatrix type="matrix" values="0 0 0 0 0.819608 0 0 0 0 0.819608 0 0 0 0 0.839216 0 0 0 0.5 0"/>
<feBlend mode="normal" in2="BackgroundImageFix" result="effect1_dropShadow"/>
<feBlend mode="normal" in="SourceGraphic" in2="effect1_dropShadow" result="shape"/>
</filter>
</defs>
</svg>
